<svg role="img" viewBox="0 0 24 24"  fill="currentColor" xmlns="http://www.w3.org/2000/svg">
  <path fill-rule="evenodd" clip-rule="evenodd" d="M6 5C6 4.44772 5.55228 4 5 4C4.44772 4 4 4.44772 4 5V13.0005V13.0006V19C4 19.5523 4.44772 20 5 20H19C19.5523 20 20 19.5523 20 19C20 18.4477 19.5523 18 19 18H7.41424L8.70711 16.7071C9.09763 16.3166 9.09763 15.6834 8.70711 15.2929C8.31658 14.9024 7.68342 14.9024 7.29289 15.2929L6 16.5858V13.4684L8.64021 11.2682C9.06449 10.9147 9.12181 10.2841 8.76825 9.85984C8.41468 9.43556 7.78412 9.37824 7.35984 9.7318L6 10.865V5ZM18.5 17C19.3284 17 20 16.3284 20 15.5C20 14.6716 19.3284 14 18.5 14C17.6716 14 17 14.6716 17 15.5C17 16.3284 17.6716 17 18.5 17ZM20 9.5C20 10.3284 19.3284 11 18.5 11C17.6716 11 17 10.3284 17 9.5C17 8.67157 17.6716 8 18.5 8C19.3284 8 20 8.67157 20 9.5ZM10.5 15C11.3284 15 12 14.3284 12 13.5C12 12.6716 11.3284 12 10.5 12C9.67157 12 9 12.6716 9 13.5C9 14.3284 9.67157 15 10.5 15ZM12 8.5C12 9.32843 11.3284 10 10.5 10C9.67157 10 9 9.32843 9 8.5C9 7.67157 9.67157 7 10.5 7C11.3284 7 12 7.67157 12 8.5ZM14.3162 12.5513C13.7923 12.3767 13.226 12.6599 13.0513 13.1838C12.8767 13.7077 13.1598 14.2741 13.6838 14.4487L15.1838 14.9487C15.7077 15.1234 16.274 14.8402 16.4487 14.3163C16.6233 13.7923 16.3402 13.226 15.8162 13.0513L14.3162 12.5513ZM14.3163 7.05134C13.7923 6.8767 13.226 7.15986 13.0513 7.6838C12.8767 8.20774 13.1599 8.77406 13.6838 8.94871L15.1838 9.44871C15.7077 9.62336 16.2741 9.3402 16.4487 8.81626C16.6234 8.29231 16.3402 7.72599 15.8163 7.55134L14.3163 7.05134Z"/>
</svg>